<svg xmlns="http://www.w3.org/2000/svg" viewBox="0 0 820 420" role="img" aria-labelledby="title desc">
  <title id="title">DBpedia recall comparison</title>
  <desc id="desc">Bar chart comparing recall for IVF_PQ and IVF_RQ 3-bit, 5-bit, and 7-bit indexes on DBpedia 1M.</desc>
  <rect width="820" height="420" fill="#ffffff"/>
  <text x="410" y="34" text-anchor="middle" font-family="Inter, Arial, sans-serif" font-size="24" font-weight="700" fill="#111827">DBpedia 1M: Recall@10</text>
  <text x="410" y="58" text-anchor="middle" font-family="Inter, Arial, sans-serif" font-size="13" fill="#4b5563">Higher is better, nprobes=24, top-k=10, no raw-vector refine</text>
  <line x1="86" y1="326" x2="744" y2="326" stroke="#111827" stroke-width="1.4"/>
  <line x1="86" y1="86" x2="86" y2="326" stroke="#111827" stroke-width="1.4"/>
  <g stroke="#e5e7eb" stroke-width="1">
    <line x1="86" y1="266" x2="744" y2="266"/>
    <line x1="86" y1="206" x2="744" y2="206"/>
    <line x1="86" y1="146" x2="744" y2="146"/>
    <line x1="86" y1="86" x2="744" y2="86"/>
  </g>
  <g font-family="Inter, Arial, sans-serif" font-size="12" fill="#374151">
    <text x="76" y="330" text-anchor="end">70%</text>
    <text x="76" y="270" text-anchor="end">77.5%</text>
    <text x="76" y="210" text-anchor="end">85%</text>
    <text x="76" y="150" text-anchor="end">92.5%</text>
    <text x="76" y="90" text-anchor="end">100%</text>
  </g>
  <rect x="145" y="287.4" width="92" height="38.6" fill="#f97316" rx="5"/>
  <rect x="302" y="137.8" width="92" height="188.2" fill="#2563eb" rx="5"/>
  <rect x="459" y="116.1" width="92" height="209.9" fill="#2563eb" rx="5"/>
  <rect x="616" y="111.4" width="92" height="214.6" fill="#2563eb" rx="5"/>
  <g font-family="Inter, Arial, sans-serif" font-size="13" font-weight="700">
    <text x="191" y="279" text-anchor="middle" fill="#c2410c">74.83%</text>
    <text x="348" y="130" text-anchor="middle" fill="#1d4ed8">93.52%</text>
    <text x="505" y="108" text-anchor="middle" fill="#1d4ed8">96.24%</text>
    <text x="662" y="103" text-anchor="middle" fill="#1d4ed8">96.83%</text>
  </g>
  <g font-family="Inter, Arial, sans-serif" font-size="13" fill="#111827">
    <text x="191" y="352" text-anchor="middle">IVF_PQ</text>
    <text x="348" y="352" text-anchor="middle">RQ 3-bit</text>
    <text x="505" y="352" text-anchor="middle">RQ 5-bit</text>
    <text x="662" y="352" text-anchor="middle">RQ 7-bit</text>
  </g>
  <text x="410" y="388" text-anchor="middle" font-family="Inter, Arial, sans-serif" font-size="13" fill="#4b5563">Multi-bit RaBitQ stores more signal in the index, reducing the need for raw-vector refine.</text>
</svg>
