<svg xmlns="http://www.w3.org/2000/svg" viewBox="0 0 720 380" role="img" aria-labelledby="title desc">
  <title id="title">approx_mode latency comparison</title>
  <desc id="desc">Bar chart comparing average latency for fast, normal, and accurate approx_mode settings on the same 5-bit IVF_RQ index.</desc>
  <rect width="720" height="380" fill="#ffffff"/>
  <text x="360" y="34" text-anchor="middle" font-family="Inter, Arial, sans-serif" font-size="22" font-weight="700" fill="#111827">approx_mode latency</text>
  <text x="360" y="58" text-anchor="middle" font-family="Inter, Arial, sans-serif" font-size="13" fill="#4b5563">Same 5-bit IVF_RQ index, lower is better</text>
  <line x1="82" y1="296" x2="650" y2="296" stroke="#111827" stroke-width="1.4"/>
  <line x1="82" y1="86" x2="82" y2="296" stroke="#111827" stroke-width="1.4"/>
  <g stroke="#e5e7eb" stroke-width="1">
    <line x1="82" y1="243.5" x2="650" y2="243.5"/>
    <line x1="82" y1="191" x2="650" y2="191"/>
    <line x1="82" y1="138.5" x2="650" y2="138.5"/>
    <line x1="82" y1="86" x2="650" y2="86"/>
  </g>
  <g font-family="Inter, Arial, sans-serif" font-size="12" fill="#374151">
    <text x="72" y="300" text-anchor="end">0</text>
    <text x="72" y="248" text-anchor="end">1.25</text>
    <text x="72" y="195" text-anchor="end">2.50</text>
    <text x="72" y="143" text-anchor="end">3.75</text>
    <text x="72" y="90" text-anchor="end">5 ms</text>
  </g>
  <rect x="156" y="162.7" width="98" height="133.3" fill="#2563eb" rx="5"/>
  <rect x="314" y="136.3" width="98" height="159.7" fill="#2563eb" rx="5"/>
  <rect x="472" y="106.7" width="98" height="189.3" fill="#2563eb" rx="5"/>
  <g font-family="Inter, Arial, sans-serif" font-size="13" font-weight="700" fill="#1d4ed8">
    <text x="205" y="154" text-anchor="middle">3.175 ms</text>
    <text x="363" y="128" text-anchor="middle">3.802 ms</text>
    <text x="521" y="98" text-anchor="middle">4.508 ms</text>
  </g>
  <g font-family="Inter, Arial, sans-serif" font-size="13" fill="#111827">
    <text x="205" y="322" text-anchor="middle">fast</text>
    <text x="363" y="322" text-anchor="middle">normal</text>
    <text x="521" y="322" text-anchor="middle">accurate</text>
  </g>
</svg>
