<svg xmlns="http://www.w3.org/2000/svg" viewBox="0 0 860 430" role="img" aria-labelledby="title desc">
  <title id="title">Serving hot memory comparison</title>
  <desc id="desc">Horizontal bar chart showing relative hot memory for PQ no refine, RQ fast, RQ full 5-bit, and PQ plus refine.</desc>
  <rect width="860" height="430" fill="#ffffff"/>
  <text x="430" y="34" text-anchor="middle" font-family="Inter, Arial, sans-serif" font-size="24" font-weight="700" fill="#111827">Serving hot memory by query path</text>
  <text x="430" y="58" text-anchor="middle" font-family="Inter, Arial, sans-serif" font-size="13" fill="#4b5563">Relative to raw f32 vectors, lower is better</text>
  <g font-family="Inter, Arial, sans-serif" font-size="13" fill="#111827">
    <text x="64" y="113">PQ no refine</text>
    <text x="64" y="183">RQ fast</text>
    <text x="64" y="253">RQ full 5-bit</text>
    <text x="64" y="323">PQ + refine</text>
  </g>
  <line x1="220" y1="360" x2="800" y2="360" stroke="#111827" stroke-width="1.4"/>
  <g stroke="#e5e7eb" stroke-width="1">
    <line x1="220" y1="82" x2="220" y2="360"/>
    <line x1="365" y1="82" x2="365" y2="360"/>
    <line x1="510" y1="82" x2="510" y2="360"/>
    <line x1="655" y1="82" x2="655" y2="360"/>
    <line x1="800" y1="82" x2="800" y2="360"/>
  </g>
  <rect x="220" y="92" width="18" height="38" fill="#f97316" rx="5"/>
  <rect x="220" y="162" width="18" height="38" fill="#2563eb" rx="5"/>
  <rect x="220" y="232" width="89" height="38" fill="#2563eb" rx="5"/>
  <rect x="220" y="302" width="589" height="38" fill="#f97316" rx="5"/>
  <g font-family="Inter, Arial, sans-serif" font-size="13" font-weight="700">
    <text x="250" y="116" fill="#c2410c">~1/32 raw</text>
    <text x="250" y="186" fill="#1d4ed8">~1/32 raw</text>
    <text x="322" y="256" fill="#1d4ed8">~5/32 raw</text>
    <text x="684" y="326" fill="#c2410c">~33/32 raw</text>
  </g>
  <g font-family="Inter, Arial, sans-serif" font-size="11" fill="#374151">
    <text x="220" y="381" text-anchor="middle">0</text>
    <text x="365" y="381" text-anchor="middle">0.25x</text>
    <text x="510" y="381" text-anchor="middle">0.50x</text>
    <text x="655" y="381" text-anchor="middle">0.75x</text>
    <text x="800" y="381" text-anchor="middle">1.0x raw</text>
  </g>
  <text x="430" y="410" text-anchor="middle" font-family="Inter, Arial, sans-serif" font-size="13" fill="#4b5563">A 5-bit RQ index can use the 1-bit fast path for PQ-like hot memory, or full bits for higher recall.</text>
</svg>
